<svg data-v-423bf9ae="" xmlns="http://www.w3.org/2000/svg" viewBox="0 0 334.3783734295819 60" class="font"><!----><!----><defs data-v-423bf9ae=""><linearGradient data-v-423bf9ae="" gradientTransform="rotate(25)" id="0cc188df-484f-49c9-8af4-fc1c01c0792e" x1="0%" y1="0%" x2="100%" y2="0%"><stop data-v-423bf9ae="" offset="0%" style="stop-color: rgb(224, 48, 47); stop-opacity: 1;"></stop><stop data-v-423bf9ae="" offset="100%" style="stop-color: rgb(50, 129, 221); stop-opacity: 1;"></stop></linearGradient></defs><g data-v-423bf9ae="" id="df6476a2-7af5-4f51-b24d-ce0ec1e47322" fill="url(#0cc188df-484f-49c9-8af4-fc1c01c0792e)" transform="matrix(6.486486434936523,0,0,6.486486434936523,4.021620273590088,-44.49729919433594)"><path d="M4.80 8.89L4.80 8.89L4.80 8.89Q4.94 8.55 4.94 8.30L4.94 8.30L4.94 8.30Q4.94 8.13 4.86 7.92L4.86 7.92L4.86 7.94L4.86 7.94Q4.66 7.41 4.38 7.08L4.38 7.08L4.40 7.08L4.40 7.08Q4.23 6.89 4.03 6.89L4.03 6.89L4.03 6.89Q3.84 6.89 3.71 7.15L3.71 7.15L3.71 7.14L3.71 7.14Q3.58 7.36 3.39 7.67L3.39 7.67L3.39 7.67Q3.19 7.98 2.97 8.33L2.97 8.33L2.97 8.33Q2.74 8.68 2.49 9.06L2.49 9.06L2.49 9.06Q2.24 9.44 1.99 9.81L1.99 9.81L1.99 9.81Q1.95 9.88 1.90 9.93L1.90 9.93L1.90 9.93Q1.86 9.98 1.83 10.04L1.83 10.04L1.83 10.04Q1.83 10.02 1.84 10.02L1.84 10.02L1.84 10.02Q1.85 10.01 1.85 9.98L1.85 9.98L1.85 9.98Q1.93 9.48 2.01 9.04L2.01 9.04L2.01 9.04Q2.09 8.61 2.17 8.26L2.17 8.26L2.17 8.26Q2.18 8.19 2.19 8.14L2.19 8.14L2.19 8.14Q2.20 8.09 2.20 8.02L2.20 8.02L2.20 8.02Q2.20 7.87 2.13 7.76L2.13 7.76L2.13 7.76Q2.06 7.66 1.90 7.50L1.90 7.50L1.90 7.50Q1.71 7.31 1.46 7.17L1.46 7.17L1.46 7.17Q1.20 7.03 0.99 6.96L0.99 6.96L1.01 6.97L1.01 6.97Q0.94 6.94 0.88 6.92L0.88 6.92L0.88 6.92Q0.81 6.90 0.76 6.90L0.76 6.90L0.76 6.90Q0.46 6.90 0.35 7.35L0.35 7.35L0.35 7.35Q0.27 7.77 0.18 8.37L0.18 8.37L0.18 8.37Q0.08 8.96-0.01 9.65L-0.01 9.65L-0.01 9.65Q-0.11 10.35-0.21 11.07L-0.21 11.07L-0.21 11.07Q-0.31 11.80-0.39 12.49L-0.39 12.49L-0.39 12.49Q-0.48 13.17-0.53 13.76L-0.53 13.76L-0.53 13.76Q-0.59 14.34-0.62 14.71L-0.62 14.71L-0.62 14.85L-0.62 14.85Q-0.62 15.25-0.45 15.44L-0.45 15.44L-0.45 15.44Q-0.28 15.64 0.06 15.79L0.06 15.79L0.06 15.79Q0.10 15.81 0.18 15.83L0.18 15.83L0.18 15.83Q0.25 15.86 0.25 15.86L0.25 15.86L0.25 15.86Q0.50 16.00 0.69 16.00L0.69 16.00L0.69 16.00Q0.98 16.00 0.99 15.60L0.99 15.60L0.99 15.60Q1.02 15.40 1.05 15.20L1.05 15.20L1.05 15.20Q1.08 14.99 1.11 14.77L1.11 14.77L1.11 14.77Q1.16 14.25 1.27 13.64L1.27 13.64L1.27 13.64Q1.51 14.13 1.76 14.55L1.76 14.55L1.76 14.55Q2.00 14.98 2.16 15.23L2.16 15.23L2.16 15.23Q2.18 15.29 2.21 15.34L2.21 15.34L2.21 15.34Q2.24 15.39 2.27 15.41L2.27 15.41L2.27 15.41Q2.44 15.67 2.59 15.76L2.59 15.76L2.59 15.76Q2.74 15.86 2.93 15.86L2.93 15.86L2.93 15.86Q3.04 15.86 3.22 15.79L3.22 15.79L3.21 15.81L3.21 15.81Q3.33 15.78 3.49 15.72L3.49 15.72L3.49 15.72Q3.64 15.67 3.75 15.55L3.75 15.55L3.75 15.55Q3.86 15.47 3.93 15.39L3.93 15.39L3.93 15.39Q3.99 15.30 3.99 15.19L3.99 15.19L3.99 15.19Q3.99 15.08 3.85 14.84L3.85 14.84L3.86 14.84L3.86 14.84Q3.74 14.64 3.58 14.36L3.58 14.36L3.58 14.36Q3.43 14.07 3.26 13.74L3.26 13.74L3.26 13.74Q3.09 13.41 2.93 13.06L2.93 13.06L2.93 13.06Q2.76 12.71 2.62 12.39L2.62 12.39L2.62 12.39Q2.93 11.97 3.25 11.51L3.25 11.51L3.25 11.51Q3.57 11.05 3.86 10.58L3.86 10.58L3.86 10.58Q4.16 10.12 4.40 9.69L4.40 9.69L4.40 9.69Q4.65 9.25 4.80 8.89ZM7.99 14.91L7.99 14.91L7.99 14.91Q8.02 15.05 8.02 15.09L8.02 15.09L8.02 15.09Q8.05 15.46 8.15 15.60L8.15 15.60L8.15 15.60Q8.25 15.74 8.46 15.85L8.46 15.85L8.46 15.85Q8.65 15.95 8.83 15.96L8.83 15.96L8.83 15.96Q9.02 15.97 9.23 15.97L9.23 15.97L9.23 15.97Q9.51 15.97 9.58 15.87L9.58 15.87L9.58 15.87Q9.66 15.76 9.66 15.48L9.66 15.48L9.66 15.48Q9.62 14.70 9.58 13.84L9.58 13.84L9.58 13.84Q9.55 12.98 9.52 12.12L9.52 12.12L9.52 12.12Q9.49 11.27 9.48 10.46L9.48 10.46L9.48 10.46Q9.46 9.66 9.46 8.99L9.46 8.99L9.46 8.99Q9.46 8.72 9.47 8.49L9.47 8.49L9.47 8.49Q9.48 8.26 9.48 8.05L9.48 8.05L9.48 7.97L9.48 7.97Q9.48 7.71 9.39 7.54L9.39 7.54L9.39 7.54Q9.31 7.36 9.07 7.25L9.07 7.25L9.07 7.25Q9.03 7.22 8.98 7.22L8.98 7.22L8.98 7.22Q8.93 7.21 8.89 7.18L8.89 7.18L8.89 7.18Q8.62 7.08 8.32 6.99L8.32 6.99L8.32 6.99Q8.01 6.90 7.55 6.87L7.55 6.87L7.45 6.87L7.45 6.87Q7.13 6.87 6.96 7.04L6.96 7.04L6.96 7.04Q6.80 7.21 6.71 7.45L6.71 7.45L6.71 7.45Q6.41 8.13 6.08 9.05L6.08 9.05L6.08 9.05Q5.74 9.97 5.41 10.94L5.41 10.94L5.41 10.94Q5.08 11.91 4.79 12.85L4.79 12.85L4.79 12.85Q4.49 13.79 4.28 14.52L4.28 14.52L4.28 14.52Q4.26 14.64 4.24 14.76L4.24 14.76L4.24 14.76Q4.23 14.87 4.23 14.95L4.23 14.95L4.23 14.95Q4.23 15.16 4.30 15.27L4.30 15.27L4.30 15.27Q4.37 15.37 4.48 15.48L4.48 15.48L4.55 15.57L4.55 15.57Q4.62 15.64 4.71 15.69L4.71 15.69L4.71 15.69Q4.80 15.74 4.89 15.79L4.89 15.79L4.89 15.79Q4.96 15.82 4.97 15.83L4.97 15.83L4.97 15.83Q4.98 15.85 5.01 15.86L5.01 15.86L5.01 15.86Q5.10 15.90 5.16 15.93L5.16 15.93L5.16 15.93Q5.22 15.96 5.29 15.96L5.29 15.96L5.29 15.96Q5.50 15.96 5.61 15.62L5.61 15.62L5.61 15.62Q5.64 15.51 5.69 15.41L5.69 15.41L5.69 15.41Q5.74 15.30 5.77 15.19L5.77 15.19L5.77 15.19Q5.84 14.94 5.91 14.69L5.91 14.69L5.91 14.69Q5.98 14.43 6.09 14.15L6.09 14.15L6.09 14.15Q6.37 14.06 6.74 13.98L6.74 13.98L6.74 13.98Q7.11 13.90 7.55 13.80L7.55 13.80L7.55 13.80Q7.63 13.79 7.72 13.78L7.72 13.78L7.72 13.78Q7.81 13.76 7.90 13.73L7.90 13.73L7.90 13.73Q7.92 14.06 7.95 14.36L7.95 14.36L7.95 14.36Q7.97 14.66 7.99 14.91ZM7.74 9.52L7.74 9.52L7.74 9.52Q7.74 10.07 7.76 10.63L7.76 10.63L7.76 10.63Q7.77 11.19 7.80 11.77L7.80 11.77L7.80 11.77Q7.55 11.80 7.32 11.84L7.32 11.84L7.32 11.84Q7.08 11.87 6.86 11.91L6.86 11.91L6.86 11.91Q7.10 11.26 7.32 10.65L7.32 10.65L7.32 10.65Q7.53 10.05 7.74 9.52ZM13.22 15.32L13.22 15.32L13.22 15.32Q13.41 15.26 13.50 15.20L13.50 15.20L13.50 15.20Q13.58 15.13 13.58 14.98L13.58 14.98L13.58 14.98Q13.58 14.91 13.57 14.84L13.57 14.84L13.57 14.84Q13.55 14.77 13.52 14.69L13.52 14.69L13.52 14.69Q13.45 14.31 13.27 13.87L13.27 13.87L13.27 13.87Q13.09 13.48 12.77 13.48L12.77 13.48L12.77 13.48Q12.74 13.48 12.70 13.48L12.70 13.48L12.70 13.48Q12.67 13.48 12.60 13.51L12.60 13.51L12.63 13.50L12.63 13.50Q12.33 13.52 12.08 13.56L12.08 13.56L12.08 13.56Q11.82 13.59 11.55 13.65L11.55 13.65L11.55 13.65Q11.66 12.96 11.80 12.23L11.80 12.23L11.80 12.23Q11.93 11.49 12.05 10.78L12.05 10.78L12.05 10.78Q12.18 10.07 12.31 9.41L12.31 9.41L12.31 9.41Q12.45 8.76 12.56 8.23L12.56 8.23L12.56 8.25L12.56 8.25Q12.60 8.11 12.60 7.97L12.60 7.97L12.60 7.97Q12.60 7.70 12.31 7.45L12.31 7.45L12.31 7.45Q12.11 7.28 11.86 7.15L11.86 7.15L11.86 7.15Q11.61 7.01 11.41 6.94L11.41 6.94L11.42 6.96L11.42 6.96Q11.31 6.90 11.17 6.90L11.17 6.90L11.17 6.90Q11.02 6.90 10.92 6.99L10.92 6.99L10.92 6.99Q10.82 7.08 10.77 7.32L10.77 7.32L10.77 7.32Q10.61 8.01 10.44 8.93L10.44 8.93L10.44 8.93Q10.28 9.86 10.13 10.82L10.13 10.82L10.13 10.82Q9.98 11.77 9.87 12.67L9.87 12.67L9.87 12.67Q9.76 13.57 9.70 14.20L9.70 14.20L9.70 14.20Q9.70 14.24 9.70 14.29L9.70 14.29L9.70 14.29Q9.69 14.34 9.69 14.38L9.69 14.38L9.69 14.38Q9.69 14.62 9.77 14.79L9.77 14.79L9.77 14.79Q9.84 14.97 9.95 15.12L9.95 15.12L9.95 15.12Q10.01 15.19 10.06 15.25L10.06 15.25L10.06 15.25Q10.11 15.30 10.15 15.36L10.15 15.36L10.15 15.36Q10.23 15.46 10.30 15.54L10.30 15.54L10.30 15.54Q10.37 15.62 10.46 15.71L10.46 15.71L10.44 15.71L10.44 15.71Q10.51 15.81 10.62 15.88L10.62 15.88L10.62 15.88Q10.72 15.95 10.92 15.95L10.92 15.95L10.92 15.95Q11.09 15.95 11.33 15.85L11.33 15.85L11.31 15.86L11.31 15.86Q11.76 15.74 12.25 15.60L12.25 15.60L12.25 15.60Q12.74 15.46 13.22 15.32ZM19.36 8.41L19.36 8.41L19.36 8.41Q19.40 8.25 19.40 8.09L19.40 8.09L19.40 8.09Q19.40 7.80 19.26 7.60L19.26 7.60L19.26 7.60Q19.11 7.41 18.86 7.24L18.86 7.24L18.86 7.24Q18.69 7.11 18.54 7.02L18.54 7.02L18.54 7.02Q18.40 6.93 18.24 6.93L18.24 6.93L18.24 6.93Q17.95 6.93 17.84 7.28L17.84 7.28L17.84 7.28Q17.77 7.56 17.68 7.84L17.68 7.84L17.68 7.84Q17.60 8.12 17.53 8.40L17.53 8.40L17.53 8.40Q17.25 9.42 16.95 10.47L16.95 10.47L16.95 10.47Q16.66 11.52 16.34 12.57L16.34 12.57L16.34 12.57Q16.25 11.52 16.19 10.56L16.19 10.56L16.19 10.56Q16.13 9.60 16.07 8.83L16.07 8.83L16.07 8.83Q16.06 8.64 16.04 8.46L16.04 8.46L16.04 8.46Q16.03 8.27 16.02 8.12L16.02 8.12L16.02 8.12Q15.95 7.46 15.46 7.24L15.46 7.24L15.47 7.24L15.47 7.24Q15.27 7.13 15.11 7.09L15.11 7.09L15.11 7.09Q14.94 7.06 14.71 7.06L14.71 7.06L14.71 7.06Q14.43 7.06 14.36 7.18L14.36 7.18L14.36 7.18Q14.29 7.31 14.29 7.62L14.29 7.62L14.29 7.62Q14.36 9.51 14.50 11.20L14.50 11.20L14.50 11.20Q14.63 12.89 14.83 14.34L14.83 14.34L14.83 14.34Q14.87 14.62 15.02 14.95L15.02 14.95L15.02 14.95Q15.16 15.29 15.47 15.50L15.47 15.50L15.47 15.50Q15.71 15.69 15.94 15.81L15.94 15.81L15.94 15.81Q16.17 15.92 16.45 16.03L16.45 16.03L16.45 16.03Q16.62 16.11 16.77 16.11L16.77 16.11L16.77 16.11Q16.95 16.11 17.07 16.00L17.07 16.00L17.07 16.00Q17.18 15.89 17.28 15.65L17.28 15.65L17.28 15.65Q17.43 15.19 17.63 14.58L17.63 14.58L17.63 14.58Q17.82 13.97 18.03 13.30L18.03 13.30L18.03 13.30Q18.24 12.63 18.45 11.94L18.45 11.94L18.45 11.94Q18.65 11.24 18.83 10.59L18.83 10.59L18.83 10.59Q19.01 9.94 19.15 9.37L19.15 9.37L19.15 9.37Q19.29 8.81 19.36 8.41ZM21.41 7.62L21.41 7.62L21.41 7.62Q21.21 7.45 20.97 7.31L20.97 7.31L20.97 7.31Q20.72 7.17 20.50 7.08L20.50 7.08L20.51 7.08L20.51 7.08Q20.40 7.03 20.26 7.03L20.26 7.03L20.26 7.03Q20.09 7.03 20.01 7.13L20.01 7.13L20.01 7.13Q19.92 7.22 19.85 7.46L19.85 7.46L19.85 7.46Q19.77 7.88 19.68 8.48L19.68 8.48L19.68 8.48Q19.59 9.07 19.50 9.75L19.50 9.75L19.50 9.75Q19.40 10.43 19.31 11.14L19.31 11.14L19.31 11.14Q19.21 11.86 19.13 12.52L19.13 12.52L19.13 12.52Q19.05 13.19 19.00 13.76L19.00 13.76L19.00 13.76Q18.94 14.34 18.93 14.71L18.93 14.71L18.93 14.88L18.93 14.88Q18.93 15.13 18.99 15.28L18.99 15.28L18.99 15.28Q19.05 15.43 19.24 15.55L19.24 15.55L19.24 15.55Q19.39 15.68 19.58 15.77L19.58 15.77L19.58 15.77Q19.77 15.86 19.96 15.93L19.96 15.93L19.96 15.93Q20.08 15.99 20.19 15.99L20.19 15.99L20.19 15.99Q20.34 15.99 20.41 15.90L20.41 15.90L20.41 15.90Q20.48 15.81 20.52 15.60L20.52 15.60L20.52 15.60Q20.62 14.85 20.76 13.87L20.76 13.87L20.76 13.87Q20.90 12.88 21.06 11.87L21.06 11.87L21.06 11.87Q21.22 10.86 21.38 9.94L21.38 9.94L21.38 9.94Q21.53 9.02 21.67 8.40L21.67 8.40L21.67 8.40Q21.69 8.33 21.69 8.27L21.69 8.27L21.69 8.27Q21.70 8.22 21.70 8.15L21.70 8.15L21.70 8.15Q21.70 7.98 21.63 7.88L21.63 7.88L21.63 7.88Q21.56 7.77 21.41 7.62ZM29.76 8.68L29.78 8.68L29.78 8.68Q29.97 8.65 30.06 8.58L30.06 8.58L30.06 8.58Q30.14 8.51 30.14 8.36L30.14 8.36L30.14 8.36Q30.14 8.25 30.14 8.20L30.14 8.20L30.14 8.20Q30.13 8.16 30.11 8.09L30.11 8.09L30.11 8.09Q30.06 7.88 29.97 7.65L29.97 7.65L29.97 7.65Q29.88 7.42 29.71 7.18L29.71 7.18L29.71 7.20L29.71 7.20Q29.61 7.04 29.49 6.97L29.49 6.97L29.49 6.97Q29.37 6.90 29.13 6.90L29.13 6.90L29.13 6.90Q28.74 6.93 28.25 6.97L28.25 6.97L28.25 6.97Q27.76 7.01 27.26 7.08L27.26 7.08L27.26 7.08Q26.75 7.15 26.28 7.24L26.28 7.24L26.28 7.24Q25.80 7.32 25.42 7.42L25.42 7.42L25.42 7.42Q25.27 7.49 25.19 7.55L25.19 7.55L25.19 7.55Q25.10 7.60 25.10 7.76L25.10 7.76L25.10 7.76Q25.10 7.84 25.16 7.99L25.16 7.99L25.14 7.99L25.14 7.99Q25.21 8.19 25.32 8.48L25.32 8.48L25.32 8.48Q25.42 8.78 25.58 9.00L25.58 9.00L25.56 8.99L25.56 8.99Q25.68 9.17 25.77 9.24L25.77 9.24L25.77 9.24Q25.86 9.31 26.01 9.31L26.01 9.31L26.01 9.31Q26.14 9.31 26.25 9.25L26.25 9.25L26.25 9.25Q26.31 9.23 26.41 9.21L26.41 9.21L26.41 9.21Q26.52 9.20 26.66 9.17L26.66 9.17L26.70 9.17L26.70 9.17Q26.59 9.80 26.48 10.56L26.48 10.56L26.48 10.56Q26.38 11.31 26.28 12.07L26.28 12.07L26.28 12.07Q26.18 12.82 26.10 13.51L26.10 13.51L26.10 13.51Q26.03 14.20 26.00 14.70L26.00 14.70L26.00 14.69L26.00 14.69Q25.98 14.74 25.98 14.80L25.98 14.80L25.98 14.80Q25.98 14.85 25.98 14.91L25.98 14.91L25.98 14.91Q25.98 15.29 26.19 15.48L26.19 15.48L26.19 15.48Q26.39 15.67 26.70 15.81L26.70 15.81L26.70 15.81Q26.73 15.82 26.75 15.83L26.75 15.83L26.75 15.83Q26.77 15.83 26.80 15.85L26.80 15.85L26.80 15.85Q26.94 15.92 27.05 15.97L27.05 15.97L27.05 15.97Q27.16 16.02 27.27 16.02L27.27 16.02L27.27 16.02Q27.43 16.02 27.51 15.93L27.51 15.93L27.51 15.93Q27.59 15.85 27.62 15.62L27.62 15.62L27.62 15.62Q27.72 14.87 27.84 14.04L27.84 14.04L27.84 14.04Q27.96 13.22 28.09 12.37L28.09 12.37L28.09 12.37Q28.22 11.52 28.36 10.68L28.36 10.68L28.36 10.68Q28.50 9.84 28.63 9.07L28.63 9.07L28.63 9.07Q28.63 9.02 28.64 8.95L28.64 8.95L28.64 8.95Q28.66 8.89 28.67 8.82L28.67 8.82L28.67 8.82Q28.78 8.81 28.91 8.80L28.91 8.80L28.91 8.80Q29.04 8.79 29.15 8.76L29.15 8.76L29.15 8.76Q29.30 8.74 29.46 8.72L29.46 8.72L29.46 8.72Q29.61 8.71 29.76 8.68L29.76 8.68ZM34.08 7.66L34.08 7.66L34.08 7.66Q33.82 7.39 33.47 7.22L33.47 7.22L33.47 7.22Q33.12 7.04 32.73 6.97L32.73 6.97L32.73 6.97Q32.69 6.96 32.63 6.96L32.63 6.96L32.63 6.96Q32.58 6.96 32.52 6.96L32.52 6.96L32.52 6.96Q32.24 6.96 31.96 7.08L31.96 7.08L31.96 7.08Q31.68 7.20 31.46 7.43L31.46 7.43L31.46 7.43Q31.07 7.87 30.77 8.46L30.77 8.46L30.77 8.46Q30.46 9.06 30.25 9.73L30.25 9.73L30.25 9.73Q30.04 10.40 29.94 11.12L29.94 11.12L29.94 11.12Q29.83 11.83 29.83 12.52L29.83 12.52L29.83 12.52Q29.83 13.05 29.90 13.54L29.90 13.54L29.90 13.54Q29.96 14.03 30.11 14.46L30.11 14.46L30.10 14.46L30.10 14.46Q30.21 14.78 30.41 15.05L30.41 15.05L30.41 15.05Q30.60 15.32 30.83 15.50L30.83 15.50L30.83 15.50Q31.09 15.69 31.40 15.80L31.40 15.80L31.40 15.80Q31.71 15.90 32.02 15.95L32.02 15.95L32.02 15.95Q32.09 15.96 32.16 15.97L32.16 15.97L32.16 15.97Q32.24 15.97 32.33 15.97L32.33 15.97L32.33 15.97Q33.00 15.97 33.52 15.37L33.52 15.37L33.52 15.37Q33.85 14.91 34.09 14.32L34.09 14.32L34.09 14.32Q34.33 13.73 34.48 13.07L34.48 13.07L34.48 13.07Q34.64 12.40 34.71 11.72L34.71 11.72L34.71 11.72Q34.79 11.03 34.79 10.37L34.79 10.37L34.79 10.37Q34.79 9.65 34.71 9.03L34.71 9.03L34.71 9.03Q34.64 8.60 34.50 8.27L34.50 8.27L34.50 8.27Q34.36 7.94 34.08 7.66ZM32.89 8.76L32.89 8.76L32.89 8.76Q32.98 8.79 33.03 9.14L33.03 9.14L33.03 9.14Q33.07 9.48 33.07 9.97L33.07 9.97L33.07 9.97Q33.07 10.42 33.03 10.91L33.03 10.91L33.03 10.91Q32.98 11.40 32.90 11.83L32.90 11.83L32.90 11.83Q32.82 12.35 32.70 12.80L32.70 12.80L32.70 12.80Q32.58 13.26 32.45 13.59L32.45 13.59L32.45 13.59Q32.31 13.93 32.18 14.12L32.18 14.12L32.18 14.12Q32.05 14.31 31.92 14.31L31.92 14.31L31.92 14.31Q31.89 14.31 31.88 14.29L31.88 14.29L31.88 14.29Q31.74 14.22 31.68 13.89L31.68 13.89L31.68 13.89Q31.63 13.57 31.63 13.09L31.63 13.09L31.63 13.09Q31.63 12.67 31.68 12.20L31.68 12.20L31.68 12.20Q31.72 11.73 31.82 11.28L31.82 11.28L31.82 11.28Q31.91 10.86 32.05 10.42L32.05 10.42L32.05 10.42Q32.19 9.97 32.33 9.60L32.33 9.60L32.33 9.60Q32.48 9.24 32.63 9.00L32.63 9.00L32.63 9.00Q32.77 8.76 32.89 8.76ZM35.64 7.62L35.59 7.71L34.96 13.89L34.96 13.89Q34.94 13.99 34.94 14.08L34.94 14.08L34.94 14.08Q34.94 14.17 34.94 14.24L34.94 14.24L34.94 14.24Q34.94 14.56 35.02 14.73L35.02 14.73L35.02 14.73Q35.10 14.90 35.21 15.06L35.21 15.06L35.21 15.05L35.21 15.05Q35.24 15.11 35.27 15.13L35.27 15.13L35.27 15.13Q35.46 15.37 35.62 15.53L35.62 15.53L35.62 15.53Q35.77 15.68 35.99 15.85L35.99 15.85L35.99 15.85Q36.29 16.07 36.55 16.07L36.55 16.07L36.55 16.07Q36.74 16.07 36.93 15.96L36.93 15.96L36.93 15.96Q37.79 15.61 38.42 15.00L38.42 15.00L38.42 15.00Q39.06 14.39 39.47 13.65L39.47 13.65L39.47 13.65Q39.89 12.91 40.09 12.10L40.09 12.10L40.09 12.10Q40.29 11.28 40.29 10.51L40.29 10.51L40.29 10.51Q40.29 10.02 40.22 9.58L40.22 9.58L40.22 9.58Q40.14 9.13 39.97 8.74L39.97 8.74L39.97 8.74Q39.56 7.73 38.93 7.34L38.93 7.34L38.93 7.34Q38.30 6.94 37.62 6.94L37.62 6.94L37.62 6.94Q37.06 6.94 36.53 7.15L36.53 7.15L36.53 7.15Q36.01 7.35 35.64 7.62L35.64 7.62ZM37.48 9.06L37.48 9.06L37.48 9.06Q37.55 9.03 37.63 9.02L37.63 9.02L37.63 9.02Q37.72 9.00 37.79 9.00L37.79 9.00L37.79 9.00Q38.01 9.00 38.16 9.13L38.16 9.13L38.16 9.13Q38.32 9.25 38.39 9.45L38.39 9.45L38.39 9.45Q38.49 9.72 38.49 10.15L38.49 10.15L38.49 10.29L38.49 10.29Q38.47 10.67 38.37 11.14L38.37 11.14L38.37 11.14Q38.26 11.61 38.05 12.08L38.05 12.08L38.05 12.08Q37.83 12.56 37.49 13.01L37.49 13.01L37.49 13.01Q37.16 13.47 36.68 13.82L36.68 13.82L36.68 13.82Q36.88 12.56 37.06 11.38L37.06 11.38L37.06 11.38Q37.24 10.19 37.48 9.06ZM43.86 14.91L43.86 14.91L43.86 14.91Q43.89 15.05 43.89 15.09L43.89 15.09L43.89 15.09Q43.92 15.46 44.02 15.60L44.02 15.60L44.02 15.60Q44.11 15.74 44.32 15.85L44.32 15.85L44.32 15.85Q44.52 15.95 44.70 15.96L44.70 15.96L44.70 15.96Q44.88 15.97 45.09 15.97L45.09 15.97L45.09 15.97Q45.37 15.97 45.45 15.87L45.45 15.87L45.45 15.87Q45.53 15.76 45.53 15.48L45.53 15.48L45.53 15.48Q45.49 14.70 45.45 13.84L45.45 13.84L45.45 13.84Q45.42 12.98 45.39 12.12L45.39 12.12L45.39 12.12Q45.36 11.27 45.35 10.46L45.35 10.46L45.35 10.46Q45.33 9.66 45.33 8.99L45.33 8.99L45.33 8.99Q45.33 8.72 45.34 8.49L45.34 8.49L45.34 8.49Q45.35 8.26 45.35 8.05L45.35 8.05L45.35 7.97L45.35 7.97Q45.35 7.71 45.26 7.54L45.26 7.54L45.26 7.54Q45.18 7.36 44.94 7.25L44.94 7.25L44.94 7.25Q44.90 7.22 44.85 7.22L44.85 7.22L44.85 7.22Q44.80 7.21 44.76 7.18L44.76 7.18L44.76 7.18Q44.49 7.08 44.18 6.99L44.18 6.99L44.18 6.99Q43.88 6.90 43.41 6.87L43.41 6.87L43.32 6.87L43.32 6.87Q42.99 6.87 42.83 7.04L42.83 7.04L42.83 7.04Q42.67 7.21 42.57 7.45L42.57 7.45L42.57 7.45Q42.28 8.13 41.94 9.05L41.94 9.05L41.94 9.05Q41.61 9.97 41.28 10.94L41.28 10.94L41.28 10.94Q40.95 11.91 40.66 12.85L40.66 12.85L40.66 12.85Q40.36 13.79 40.15 14.52L40.15 14.52L40.15 14.52Q40.12 14.64 40.11 14.76L40.11 14.76L40.11 14.76Q40.10 14.87 40.10 14.95L40.10 14.95L40.10 14.95Q40.10 15.16 40.17 15.27L40.17 15.27L40.17 15.27Q40.24 15.37 40.35 15.48L40.35 15.48L40.42 15.57L40.42 15.57Q40.49 15.64 40.58 15.69L40.58 15.69L40.58 15.69Q40.67 15.74 40.75 15.79L40.75 15.79L40.75 15.79Q40.82 15.82 40.84 15.83L40.84 15.83L40.84 15.83Q40.85 15.85 40.88 15.86L40.88 15.86L40.88 15.86Q40.96 15.90 41.03 15.93L41.03 15.93L41.03 15.93Q41.09 15.96 41.16 15.96L41.16 15.96L41.16 15.96Q41.37 15.96 41.48 15.62L41.48 15.62L41.48 15.62Q41.51 15.51 41.56 15.41L41.56 15.41L41.56 15.41Q41.61 15.30 41.64 15.19L41.64 15.19L41.64 15.19Q41.71 14.94 41.78 14.69L41.78 14.69L41.78 14.69Q41.85 14.43 41.96 14.15L41.96 14.15L41.96 14.15Q42.24 14.06 42.61 13.98L42.61 13.98L42.61 13.98Q42.98 13.90 43.41 13.80L43.41 13.80L43.41 13.80Q43.50 13.79 43.59 13.78L43.59 13.78L43.59 13.78Q43.68 13.76 43.76 13.73L43.76 13.73L43.76 13.73Q43.79 14.06 43.81 14.36L43.81 14.36L43.81 14.36Q43.83 14.66 43.86 14.91ZM43.61 9.52L43.61 9.52L43.61 9.52Q43.61 10.07 43.62 10.63L43.62 10.63L43.62 10.63Q43.64 11.19 43.67 11.77L43.67 11.77L43.67 11.77Q43.41 11.80 43.18 11.84L43.18 11.84L43.18 11.84Q42.95 11.87 42.73 11.91L42.73 11.91L42.73 11.91Q42.97 11.26 43.18 10.65L43.18 10.65L43.18 10.65Q43.40 10.05 43.61 9.52ZM50.85 8.47L50.83 8.47L50.83 8.47Q50.93 8.19 50.93 8.04L50.93 8.04L50.93 8.04Q50.93 7.78 50.76 7.56L50.76 7.56L50.76 7.56Q50.68 7.46 50.56 7.34L50.56 7.34L50.56 7.34Q50.44 7.21 50.32 7.11L50.32 7.11L50.32 7.11Q50.19 7 50.06 6.93L50.06 6.93L50.06 6.93Q49.94 6.86 49.84 6.86L49.84 6.86L49.84 6.86Q49.71 6.86 49.62 6.93L49.62 6.93L49.62 6.93Q49.53 7 49.49 7.20L49.49 7.20L49.49 7.20Q49.42 7.34 49.37 7.47L49.37 7.47L49.37 7.47Q49.32 7.60 49.27 7.74L49.27 7.74L49.27 7.74Q49.03 8.33 48.79 8.90L48.79 8.90L48.79 8.90Q48.55 9.46 48.29 10.05L48.29 10.05L48.29 10.05Q48.13 9.38 48.01 8.83L48.01 8.83L48.01 8.83Q47.88 8.27 47.77 7.80L47.77 7.80L47.77 7.80Q47.64 7.43 47.53 7.25L47.53 7.25L47.53 7.25Q47.42 7.07 47.18 7L47.18 7L47.18 7Q46.98 6.93 46.77 6.93L46.77 6.93L46.77 6.93Q46.68 6.93 46.59 6.94L46.59 6.94L46.59 6.94Q46.51 6.94 46.44 6.96L46.44 6.96L46.44 6.96Q46.41 6.96 46.39 6.96L46.39 6.96L46.39 6.96Q46.37 6.97 46.35 6.97L46.35 6.97L46.35 6.97Q46.16 7 46.08 7.08L46.08 7.08L46.08 7.08Q46.00 7.15 46.00 7.32L46.00 7.32L46.00 7.32Q46.00 7.45 46.05 7.59L46.05 7.59L46.05 7.57L46.05 7.57Q46.20 8.39 46.43 9.41L46.43 9.41L46.43 9.41Q46.66 10.44 46.90 11.48L46.90 11.48L46.90 11.48Q46.96 11.72 47.01 11.96L47.01 11.96L47.01 11.96Q47.05 12.19 47.11 12.43L47.11 12.43L47.11 12.43Q47.04 12.91 47.01 13.35L47.01 13.35L47.01 13.35Q46.97 13.79 46.93 14.17L46.93 14.17L46.93 14.17Q46.90 14.34 46.89 14.49L46.89 14.49L46.89 14.49Q46.89 14.64 46.86 14.80L46.86 14.80L46.86 14.78L46.86 14.78Q46.84 14.85 46.84 14.91L46.84 14.91L46.84 14.91Q46.84 14.97 46.84 15.02L46.84 15.02L46.84 15.02Q46.84 15.23 46.91 15.37L46.91 15.37L46.91 15.37Q46.97 15.50 47.11 15.64L47.11 15.64L47.11 15.64Q47.32 15.78 47.53 15.88L47.53 15.88L47.53 15.88Q47.74 15.99 47.89 16.06L47.89 16.06L47.89 16.06Q47.96 16.09 48.03 16.10L48.03 16.10L48.03 16.10Q48.09 16.11 48.13 16.11L48.13 16.11L48.13 16.11Q48.29 16.11 48.36 16.02L48.36 16.02L48.36 16.02Q48.43 15.93 48.47 15.69L48.47 15.69L48.47 15.69Q48.54 15.09 48.63 14.46L48.63 14.46L48.63 14.46Q48.72 13.83 48.85 13.12L48.85 13.12L48.85 13.12Q49.15 12.47 49.47 11.79L49.47 11.79L49.47 11.79Q49.78 11.10 50.06 10.48L50.06 10.48L50.06 10.48Q50.33 9.86 50.54 9.33L50.54 9.33L50.54 9.33Q50.75 8.81 50.85 8.47L50.85 8.47Z"></path></g><!----><!----></svg>